<svg width="20" height="20" viewBox="0 0 20 20" fill="none" xmlns="http://www.w3.org/2000/svg">
<path fill-rule="evenodd" clip-rule="evenodd" d="M9.99613 5.36364C10.8551 5.36364 11.5508 4.71274 11.5508 3.90908C11.5508 3.63636 11.4692 3.37819 11.3293 3.16L9.99613 1L8.66297 3.16C8.52305 3.37819 8.44143 3.63636 8.44143 3.90908C8.44143 4.71274 9.13718 5.36364 9.99613 5.36364ZM14.6602 7.54545H10.7735V6.09089H9.21875V7.54545H5.33204C4.04552 7.54545 3 8.52362 3 9.72727V10.8473C3 11.6327 3.68405 12.2727 4.52359 12.2727C4.93169 12.2727 5.31258 12.1236 5.60022 11.8545L7.26373 10.3018L8.92338 11.8509C9.49863 12.389 10.5014 12.389 11.0766 11.8509L12.7401 10.3018L14.3998 11.8509C14.6874 12.1199 15.0683 12.269 15.4764 12.269C16.3159 12.269 17 11.6291 17 10.8436V9.72727C16.9922 8.52362 15.9467 7.54545 14.6602 7.54545ZM12.7324 11.8436L13.568 12.6254C14.0772 13.1018 14.7496 13.3637 15.4686 13.3637C16.0361 13.3637 16.5569 13.1964 16.9922 12.9164V16.2727C16.9922 16.6727 16.6424 17 16.2149 17H3.77733C3.34981 17 3 16.6727 3 16.2727V12.9163C3.43529 13.1963 3.96 13.3636 4.52359 13.3636C5.24266 13.3636 5.91505 13.1018 6.41644 12.6254L7.25597 11.8436L8.09164 12.6254C9.10608 13.5745 10.8784 13.5745 11.8929 12.6254L12.7324 11.8436Z" fill="#605DCA" fill-opacity="0.23"/>
</svg>
