<svg width="34" height="34" viewBox="0 0 34 34" fill="none" xmlns="http://www.w3.org/2000/svg">
<path d="M34 17C34 26.3888 26.3888 34 17 34C7.61116 34 0 26.3888 0 17C0 7.61116 7.61116 0 17 0C26.3888 0 34 7.61116 34 17Z" fill="#605DCA"/>
<path d="M21.8 21.8C20.912 21.8 20.2 22.512 20.2 23.4C20.2 23.8243 20.3686 24.2313 20.6686 24.5314C20.9687 24.8314 21.3757 25 21.8 25C22.2243 25 22.6313 24.8314 22.9314 24.5314C23.2314 24.2313 23.4 23.8243 23.4 23.4C23.4 22.512 22.68 21.8 21.8 21.8ZM9 9V10.6H10.6L13.48 16.672L12.392 18.632C12.272 18.856 12.2 19.12 12.2 19.4C12.2 19.8243 12.3686 20.2313 12.6686 20.5314C12.9687 20.8314 13.3757 21 13.8 21H23.4V19.4H14.136C14.083 19.4 14.0321 19.3789 13.9946 19.3414C13.9571 19.3039 13.936 19.253 13.936 19.2C13.936 19.16 13.944 19.128 13.96 19.104L14.68 17.8H20.64C21.24 17.8 21.768 17.464 22.04 16.976L24.904 11.8C24.96 11.672 25 11.536 25 11.4C25 11.1878 24.9157 10.9843 24.7657 10.8343C24.6157 10.6843 24.4122 10.6 24.2 10.6H12.368L11.616 9H9ZM13.8 21.8C12.912 21.8 12.2 22.512 12.2 23.4C12.2 23.8243 12.3686 24.2313 12.6686 24.5314C12.9687 24.8314 13.3757 25 13.8 25C14.2243 25 14.6313 24.8314 14.9314 24.5314C15.2314 24.2313 15.4 23.8243 15.4 23.4C15.4 22.512 14.68 21.8 13.8 21.8Z" fill="white"/>
</svg>
