<svg width="18" height="18" viewBox="0 0 18 18" fill="none" xmlns="http://www.w3.org/2000/svg">
<path d="M17.0898 15.1016L11.9883 10L17.0898 4.89844C17.6406 4.34766 17.6406 3.46094 17.0898 2.91016C16.5391 2.35938 15.6523 2.35938 15.1016 2.91016L10 8.01172L4.89844 2.91016C4.34766 2.35938 3.46094 2.35938 2.91016 2.91016C2.35938 3.46094 2.35938 4.34766 2.91016 4.89844L8.01172 10L2.91016 15.1016C2.35938 15.6523 2.35938 16.5391 2.91016 17.0898C3.46094 17.6406 4.34766 17.6406 4.89844 17.0898L10 11.9883L15.1016 17.0898C15.6523 17.6406 16.5391 17.6406 17.0898 17.0898C17.6367 16.5391 17.6367 15.6484 17.0898 15.1016Z" fill="#A9A9E4"/>
</svg>
