<svg width="20" height="20" viewBox="0 0 20 20" fill="none" xmlns="http://www.w3.org/2000/svg">
<path opacity="0.3" fill-rule="evenodd" clip-rule="evenodd" d="M18.6481 5.21773L10.1755 2.03203C10.0619 1.98932 9.93809 1.98932 9.82457 2.03203L1.35191 5.21773C1.14126 5.29693 1.00028 5.50898 1 5.74704C0.99972 5.98509 1.14024 6.19748 1.35072 6.27721L9.82338 9.48711C9.8805 9.50876 9.94027 9.51959 10 9.51959C10.0598 9.51959 10.1195 9.50876 10.1766 9.48711L18.6493 6.27721C18.8598 6.19748 19.0002 5.98509 19 5.74704C18.9997 5.50898 18.8587 5.29693 18.6481 5.21773ZM17.7334 12.719V7.81705L16.6787 8.21661V12.719C16.361 12.9138 16.147 13.2789 16.147 13.6976C16.147 14.1162 16.361 14.4814 16.6787 14.6762V17.438C16.6787 17.7484 16.9148 18 17.206 18C17.4973 18 17.7334 17.7484 17.7334 17.438V14.6763C18.0511 14.4815 18.2651 14.1163 18.2651 13.6977C18.2651 13.279 18.0511 12.9138 17.7334 12.719ZM9.47005 10.5461C9.64066 10.6108 9.81894 10.6436 9.99996 10.6436C10.181 10.6436 10.3593 10.6108 10.5299 10.5461L15.2929 8.74164V11.2146C15.2929 11.8197 14.7007 12.3313 13.5326 12.7354C12.5144 13.0875 11.2598 13.2815 9.99996 13.2815C8.7401 13.2815 7.48551 13.0875 6.46735 12.7354C5.29925 12.3313 4.70697 11.8197 4.70697 11.2146V8.74164L9.47005 10.5461Z" fill="#605DCA"/>
</svg>
