<svg width="96" height="96" viewBox="0 0 96 96" fill="none" xmlns="http://www.w3.org/2000/svg">
<path d="M48 96C74.5097 96 96 74.5097 96 48C96 21.4903 74.5097 0 48 0C21.4903 0 0 21.4903 0 48C0 74.5097 21.4903 96 48 96Z" fill="#605DCA"/>
<path d="M65.7372 55.8726C69.3017 52.0657 71.4993 46.9464 71.4993 41.3134C71.4986 29.5414 61.969 20.0007 50.2096 20C38.4481 20.0007 28.9193 29.5414 28.9193 41.3141C28.9193 42.0006 28.9594 42.6757 29.022 43.3411C28.2841 44.8364 27.2829 46.82 26.4429 48.4787C25.9996 49.3529 25.6029 50.1355 25.3125 50.7053C25.1676 50.9905 25.0504 51.2224 24.9667 51.3871C24.9251 51.4695 24.8922 51.5348 24.8686 51.582L24.8389 51.64L24.8126 51.6952L24.8086 51.7019C24.609 52.1485 24.501 52.6438 24.501 53.1565C24.5016 55.1236 26.0926 56.7204 28.0595 56.7217H29.6511L29.6367 63.0787L29.636 63.0806C29.6373 65.6042 31.6808 67.6511 34.2045 67.6517L40.8883 67.6491L43.1636 75.2933C43.2381 75.5463 43.4099 75.7571 43.6426 75.8822C43.8758 76.0067 44.1459 76.0337 44.3976 75.9572L68.5693 68.6055C69.0916 68.4468 69.3862 67.8954 69.228 67.3729L65.7372 55.8726ZM44.7748 73.7768L42.5726 66.3784C42.4474 65.9581 42.0641 65.6716 41.6253 65.6722L34.2037 65.6754C33.4857 65.6747 32.8448 65.3868 32.3725 64.9158C31.9021 64.4428 31.6142 63.8005 31.6136 63.0805L31.613 63.0825L31.6307 55.7353C31.6307 55.4718 31.5285 55.2221 31.3421 55.035C31.1556 54.8479 30.906 54.7445 30.6417 54.7445H28.0596C27.1888 54.7432 26.4785 54.0331 26.4773 53.1556C26.4773 52.9205 26.5261 52.7064 26.6116 52.512C26.6314 52.4719 26.6827 52.3697 26.7578 52.2235C27.3816 50.9936 29.6181 46.6049 30.9165 43.9673C30.9988 43.7987 31.0324 43.6117 31.0127 43.4252C30.9377 42.7289 30.8961 42.0241 30.8961 41.3125C30.8961 35.9686 33.0562 31.14 36.5522 27.638C40.0509 24.1373 44.8729 21.9753 50.2096 21.9747C55.5462 21.9753 60.3677 24.1367 63.8656 27.638C67.363 31.14 69.5224 35.9686 69.523 41.3125C69.5222 46.6234 67.3828 51.4177 63.9229 54.9151C63.6673 55.1727 63.5744 55.5502 63.6798 55.8973L67.05 67.0006L44.7748 73.7768Z" fill="white"/>
<path d="M61.5845 40.8808C61.5845 40.8808 60.1543 40.0231 59.8606 38.8347C59.5647 37.6462 60.4278 36.22 60.4278 36.22C60.6149 35.9097 60.6116 35.4052 60.4193 35.0975L59.0359 33.228C58.8456 33.0066 58.495 32.8643 58.1814 32.8643C58.107 32.8643 58.0345 32.8723 57.9673 32.8892C57.9673 32.8892 57.458 33.0171 56.8256 33.0171C56.3316 33.0171 55.7631 32.9393 55.3026 32.6614C54.2518 32.029 53.8552 30.411 53.8552 30.411C53.7689 30.0593 53.4092 29.7056 53.0555 29.6252L50.7564 29.2774L50.7012 29.2754C50.3501 29.2754 49.937 29.5007 49.7604 29.7959C49.7604 29.7959 48.904 31.2235 47.7157 31.5199C47.5411 31.5633 47.3626 31.5818 47.1834 31.5818C46.1399 31.5818 45.101 30.9533 45.101 30.9533C44.9487 30.8611 44.7486 30.815 44.5483 30.815C44.3415 30.815 44.1339 30.8637 43.9784 30.9612L42.1089 32.3446C41.8349 32.581 41.682 33.062 41.7696 33.4137C41.7696 33.4137 42.1749 35.0283 41.5431 36.0777C40.91 37.1265 39.2935 37.5251 39.2935 37.5251C38.9417 37.6114 38.5886 37.9717 38.5076 38.3249L38.1611 40.6239C38.1354 40.9855 38.368 41.4336 38.6789 41.62C38.6789 41.62 40.107 42.4764 40.4008 43.6648C40.6967 44.8525 39.8342 46.2781 39.8342 46.2781C39.6465 46.5884 39.6498 47.0929 39.8422 47.4006L41.2256 49.2696C41.4172 49.4915 41.7678 49.6339 42.0812 49.6339C42.1549 49.6339 42.2275 49.6259 42.2946 49.609C42.2946 49.609 42.8039 49.4819 43.4356 49.4819C43.9297 49.4819 44.4989 49.5596 44.9593 49.8362C46.0081 50.4687 46.4059 52.0872 46.4059 52.0872C46.4929 52.4389 46.8533 52.7927 47.2057 52.873L49.5047 53.2195L49.56 53.2215C49.9097 53.2215 50.3229 52.9962 50.5007 52.701C50.5007 52.701 51.3584 51.2742 52.5455 50.9791C52.72 50.9357 52.8985 50.9172 53.0778 50.9172C54.1212 50.9172 55.1602 51.5463 55.1602 51.5463C55.3124 51.6393 55.5132 51.6847 55.7135 51.6847C55.9197 51.6847 56.1272 51.6359 56.2826 51.5385L58.1508 50.1564C58.4261 49.9206 58.5789 49.4397 58.4914 49.0879C58.4914 49.0879 58.0876 47.47 58.7179 46.4212C59.351 45.3711 60.9689 44.9739 60.9689 44.9739C61.3213 44.8876 61.6743 44.5278 61.7547 44.1748L62.1019 41.8764C62.1279 41.5153 61.8955 41.0672 61.5845 40.8808ZM59.8981 43.2393C59.097 43.5272 57.771 44.1661 57.0247 45.4046C56.2823 46.6398 56.3376 48.1094 56.4575 48.9526L55.6314 49.564C55.0497 49.2906 54.107 48.9421 53.0787 48.9421C52.7294 48.9421 52.3889 48.9829 52.0701 49.0626C50.669 49.4104 49.6682 50.4902 49.1584 51.1694L48.142 51.0159C47.8534 50.2155 47.2157 48.8894 45.9787 48.143C45.2759 47.7208 44.4214 47.5067 43.4372 47.5067C43.0551 47.5067 42.7078 47.5389 42.4325 47.5778L41.8198 46.7498C42.1827 45.9803 42.6696 44.5904 42.3211 43.1913C41.9746 41.7894 40.8935 40.7889 40.2143 40.2776L40.3671 39.2612C41.1662 38.9727 42.4923 38.3344 43.238 37.0984C43.9824 35.862 43.9257 34.3923 43.8059 33.5497L44.6325 32.9382C45.2136 33.2109 46.1562 33.5595 47.1846 33.5595C47.533 33.5595 47.873 33.5187 48.1938 33.439C49.5943 33.0905 50.5943 32.0114 51.1054 31.3303L52.1213 31.4839C52.4092 32.2848 53.0463 33.6104 54.2827 34.3541C54.985 34.779 55.8413 34.9937 56.8261 34.9937C57.2088 34.9937 57.5554 34.9608 57.8314 34.9226L58.4434 35.7506C58.0805 36.5201 57.5937 37.91 57.9421 39.3099C58.2886 40.7117 59.3702 41.7136 60.0515 42.2248L59.8981 43.2393Z" fill="white"/>
<path d="M52.5463 37.2409C51.7913 36.7871 50.96 36.5703 50.1385 36.5703C48.5509 36.5703 47.0028 37.3779 46.1234 38.8363C44.792 41.0491 45.5055 43.9246 47.7189 45.258C48.4739 45.7132 49.3059 45.93 50.1272 45.93C51.7135 45.93 53.2616 45.1216 54.1411 43.6639C55.473 41.4516 54.7597 38.5762 52.5463 37.2409ZM52.4495 42.6432C51.9541 43.464 51.0866 43.9542 50.128 43.9542C49.6412 43.9542 49.1609 43.8199 48.7394 43.5662C47.4628 42.7974 47.0497 41.1327 47.8171 39.8574C48.3112 39.0372 49.1795 38.5472 50.1392 38.5472C50.6266 38.5472 51.1068 38.6815 51.5258 38.9331C52.8026 39.7034 53.2161 41.3687 52.4495 42.6432Z" fill="white"/>
</svg>
