<svg width="96" height="96" viewBox="0 0 96 96" fill="none" xmlns="http://www.w3.org/2000/svg">
<path d="M48 96C74.5097 96 96 74.5097 96 48C96 21.4903 74.5097 0 48 0C21.4903 0 0 21.4903 0 48C0 74.5097 21.4903 96 48 96Z" fill="#605DCA"/>
<g clip-path="url(#clip0_1792_3936)">
<path d="M74.9112 44.8889L68.1145 38.0922C69.5572 37.738 70.9284 37.0084 72.0544 35.8816C73.7009 34.2358 74.5279 32.0701 74.5274 29.9134C74.5281 27.7567 73.7009 25.5905 72.0552 23.9453C70.4093 22.298 68.243 21.4718 66.0862 21.4724C63.9289 21.4716 61.7633 22.2988 60.1181 23.9453C58.9915 25.0705 58.2616 26.4417 57.9069 27.8839L51.1116 21.0886C50.3854 20.363 49.425 19.9992 48.4757 20C47.5258 19.9992 46.5642 20.3631 45.8391 21.0886L35.8441 31.0857C35.4395 31.4903 35.4395 32.1447 35.8441 32.5493L37.0412 33.747C37.2863 33.9921 37.6357 34.0985 37.9759 34.0308C38.2997 33.9664 38.6283 33.9341 38.9577 33.9341C40.2459 33.9355 41.5237 34.4222 42.5095 35.4052C43.4913 36.3875 43.9779 37.6655 43.9793 38.9536C43.978 40.2438 43.4912 41.5246 42.5082 42.5082C41.5251 43.4905 40.2459 43.978 38.9562 43.9786C37.6674 43.9779 36.3875 43.4905 35.4051 42.5082C34.4213 41.5237 33.9346 40.2459 33.934 38.957C33.9332 38.627 33.9657 38.299 34.0305 37.9775C34.0981 37.6378 33.9913 37.2864 33.7475 37.042L32.549 35.8442C32.1446 35.4403 31.4893 35.4403 31.0847 35.845L21.089 45.841C20.3635 46.5658 19.9997 47.5268 20.001 48.4768C19.9996 49.4261 20.3635 50.3878 21.0896 51.1126L27.8847 57.9078C26.442 58.2627 25.0715 58.9924 23.9448 60.1197C22.2991 61.764 21.4719 63.9304 21.4734 66.0872C21.472 68.2432 22.2983 70.4101 23.9456 72.0561C25.5914 73.7027 27.7578 74.529 29.9151 74.5276C32.0711 74.5289 34.2367 73.7011 35.8813 72.0554C37.0078 70.9288 37.7382 69.5577 38.0924 68.1154L44.8876 74.9114C45.6139 75.637 46.5741 76.0007 47.5242 76C48.4741 76.0007 49.4344 75.6368 50.1592 74.9119L60.155 64.9161C60.5589 64.5116 60.5589 63.8564 60.155 63.4518L58.9579 62.254C58.7136 62.0097 58.3642 61.9034 58.0238 61.9703C57.7001 62.0352 57.3708 62.0669 57.0408 62.0669C55.7519 62.0656 54.4733 61.5795 53.4902 60.5971C52.5072 59.6134 52.0205 58.3348 52.0198 57.0453C52.0206 55.7564 52.5079 54.4765 53.4902 53.4926C54.4733 52.5103 55.7526 52.0235 57.0429 52.0222C58.3317 52.0235 59.6111 52.511 60.5948 53.4933C61.5771 54.477 62.0639 55.7556 62.0646 57.0445C62.0654 57.3731 62.0321 57.7025 61.9679 58.029C61.9016 58.3686 62.0073 58.7152 62.2524 58.9602L63.4495 60.158C63.6415 60.3506 63.9087 60.461 64.182 60.461C64.4547 60.461 64.7211 60.3507 64.9145 60.158L74.9108 50.1609C75.6372 49.4353 76.0002 48.4743 75.9989 47.525C75.9998 46.5747 75.636 45.6138 74.9112 44.8889ZM73.4461 48.697L64.1828 57.9596L64.084 57.8609C64.1151 57.5896 64.1365 57.3169 64.1365 57.0427C64.1373 55.2313 63.442 53.4101 62.0591 52.0273C60.6763 50.6446 58.8544 49.9487 57.043 49.9494C55.2307 49.9487 53.409 50.644 52.0261 52.0268C50.6427 53.4103 49.9475 55.2321 49.9482 57.0444C49.9475 58.8559 50.6428 60.6778 52.0261 62.0605C53.4083 63.4434 55.2301 64.1385 57.041 64.1371C57.3144 64.1371 57.5871 64.1171 57.8597 64.0854L57.9584 64.1842L48.6951 73.4468C48.3735 73.7685 47.9544 73.9273 47.5243 73.9287C47.0934 73.9273 46.6744 73.7686 46.352 73.4468L38.0407 65.1349C37.7417 64.8359 37.2944 64.7483 36.905 64.9133C36.5164 65.0769 36.2672 65.4594 36.2726 65.8811C36.274 65.9613 36.2754 66.0316 36.2754 66.0903C36.274 67.725 35.6602 69.346 34.4162 70.5914C33.1701 71.8368 31.5471 72.4561 29.9151 72.4567C28.2804 72.4559 26.6559 71.8381 25.4097 70.5919C24.1629 69.3452 23.5457 67.7214 23.5444 66.0881C23.5457 64.4547 24.1645 62.8309 25.4091 61.5855C26.6546 60.3401 28.2748 59.7278 29.9103 59.7264C29.9746 59.7264 30.0394 59.7277 30.1035 59.7299C30.5281 59.7422 30.9168 59.4952 31.0853 59.105C31.2537 58.7149 31.1668 58.2627 30.8671 57.9625L22.5545 49.6505C22.2328 49.3281 22.074 48.9091 22.0725 48.479C22.0739 48.0482 22.2327 47.6292 22.5537 47.3075L31.8177 38.0442L31.9157 38.1422C31.8846 38.4148 31.8632 38.6876 31.8632 38.9608C31.8624 40.7723 32.5583 42.5935 33.9411 43.9762C35.3232 45.3591 37.145 46.0549 38.9572 46.0536C40.7695 46.0549 42.5912 45.3591 43.9734 43.9762C45.3575 42.5921 46.0527 40.7688 46.0513 38.9566C46.0526 37.1451 45.3561 35.3253 43.9747 33.9439C42.5906 32.5604 40.7694 31.8646 38.9585 31.866C38.6851 31.866 38.4124 31.8867 38.1399 31.9185L38.0411 31.8197L47.3051 22.5558C47.6267 22.2348 48.0458 22.0753 48.4766 22.0739C48.9061 22.0752 49.3257 22.234 49.6481 22.5564L57.9601 30.8684C58.261 31.1694 58.7195 31.2557 59.1082 31.0845C59.4976 30.914 59.7446 30.5192 59.7275 30.0939C59.7247 30.038 59.7234 29.9772 59.7234 29.9117C59.7255 28.2776 60.3386 26.6567 61.5826 25.4112C62.8287 24.1658 64.4525 23.5465 66.0858 23.5459C67.7185 23.5467 69.343 24.1645 70.589 25.4112C71.835 26.658 72.4537 28.2811 72.4543 29.9144C72.4535 31.5472 71.835 33.1716 70.589 34.4176C69.3429 35.6618 67.7226 36.274 66.0879 36.2754C66.023 36.2754 65.9587 36.2746 65.8952 36.2726C65.4707 36.2603 65.0819 36.5073 64.9135 36.8975C64.7451 37.2876 64.8314 37.7398 65.1317 38.04L73.4443 46.3526C73.766 46.6743 73.9255 47.0933 73.9269 47.5242C73.9273 47.9555 73.7679 48.3745 73.4461 48.697Z" fill="white"/>
</g>
<defs>
<clipPath id="clip0_1792_3936">
<rect width="56" height="56" fill="white" transform="translate(20 20)"/>
</clipPath>
</defs>
</svg>
