<svg width="96" height="96" viewBox="0 0 96 96" fill="none" xmlns="http://www.w3.org/2000/svg">
<path d="M48 96C74.5097 96 96 74.5097 96 48C96 21.4903 74.5097 0 48 0C21.4903 0 0 21.4903 0 48C0 74.5097 21.4903 96 48 96Z" fill="#605DCA"/>
<g clip-path="url(#clip0_1792_3995)">
<path d="M28.9091 54.0459C23.9888 54.0459 20 58.0346 20 62.9549C20 67.8753 23.9888 71.8641 28.9091 71.8641C33.8295 71.8641 37.8183 67.8753 37.8183 62.9549C37.8183 58.0346 33.8294 54.0459 28.9091 54.0459ZM28.9091 69.955C25.0496 69.955 21.9091 66.8147 21.9091 62.955C21.9091 59.0954 25.0495 55.955 28.9091 55.955C32.7688 55.955 35.9091 59.0954 35.9091 62.955C35.909 66.8144 32.7687 69.955 28.9091 69.955Z" fill="white"/>
<path d="M47.9998 57.8633C43.0795 57.8633 39.0908 61.8521 39.0908 66.7724C39.0908 71.6928 43.0796 75.6815 47.9998 75.6815C52.9202 75.6815 56.909 71.6927 56.909 66.7724C56.909 61.8521 52.9202 57.8633 47.9998 57.8633ZM47.9998 73.7725C44.1403 73.7725 40.9998 70.6322 40.9998 66.7725C40.9998 62.913 44.1402 59.7725 47.9998 59.7725C51.8594 59.7725 54.9998 62.9129 54.9998 66.7725C54.9998 70.632 51.8595 73.7725 47.9998 73.7725Z" fill="white"/>
<path d="M48.0003 20.3184C39.5648 20.3184 32.7275 27.1566 32.7275 35.591C32.7275 44.0266 39.5647 50.8637 48.0003 50.8637C56.436 50.8637 63.273 44.0266 63.273 35.591C63.2731 27.1568 56.436 20.3184 48.0003 20.3184ZM48.0003 48.9548C40.6312 48.9548 34.6367 42.9595 34.6367 35.5912C34.6367 28.2228 40.6312 22.2275 48.0003 22.2275C55.3694 22.2275 61.364 28.2227 61.364 35.5912C61.3641 42.9596 55.3696 48.9548 48.0003 48.9548Z" fill="white"/>
<path d="M67.0908 54.0459C62.1704 54.0459 58.1816 58.0347 58.1816 62.9549C58.1816 67.8752 62.1704 71.8641 67.0908 71.8641C72.0111 71.8641 75.9998 67.8753 75.9998 62.9549C75.9998 58.0346 72.0111 54.0459 67.0908 54.0459ZM67.0908 69.955C63.2313 69.955 60.0908 66.8147 60.0908 62.955C60.0908 59.0954 63.2312 55.955 67.0908 55.955C70.9503 55.955 74.0908 59.0954 74.0908 62.955C74.0908 66.8144 70.9504 69.955 67.0908 69.955Z" fill="white"/>
<path d="M48.0375 56.9159C48.5647 56.9159 48.9921 56.4885 48.9921 55.9614C48.9921 55.4342 48.5647 55.0068 48.0375 55.0068C47.5104 55.0068 47.083 55.4342 47.083 55.9614C47.083 56.4885 47.5104 56.9159 48.0375 56.9159Z" fill="white"/>
<path d="M48.0375 53.7332C48.5647 53.7332 48.9921 53.3059 48.9921 52.7787C48.9921 52.2516 48.5647 51.8242 48.0375 51.8242C47.5104 51.8242 47.083 52.2516 47.083 52.7787C47.083 53.3059 47.5104 53.7332 48.0375 53.7332Z" fill="white"/>
<path d="M61.3481 55.3348C61.8752 55.3348 62.3026 54.9075 62.3026 54.3803C62.3026 53.8531 61.8752 53.4258 61.3481 53.4258C60.8209 53.4258 60.3936 53.8531 60.3936 54.3803C60.3936 54.9075 60.8209 55.3348 61.3481 55.3348Z" fill="white"/>
<path d="M59.3022 52.8973C59.8293 52.8973 60.2567 52.47 60.2567 51.9428C60.2567 51.4156 59.8293 50.9883 59.3022 50.9883C58.775 50.9883 58.3477 51.4156 58.3477 51.9428C58.3477 52.47 58.775 52.8973 59.3022 52.8973Z" fill="white"/>
<path d="M57.2573 50.4608C57.7844 50.4608 58.2118 50.0334 58.2118 49.5063C58.2118 48.9791 57.7844 48.5518 57.2573 48.5518C56.7301 48.5518 56.3027 48.9791 56.3027 49.5063C56.3027 50.0334 56.7301 50.4608 57.2573 50.4608Z" fill="white"/>
<path d="M34.7211 55.4081C35.2483 55.4081 35.6756 54.9807 35.6756 54.4535C35.6756 53.9264 35.2483 53.499 34.7211 53.499C34.194 53.499 33.7666 53.9264 33.7666 54.4535C33.7666 54.9807 34.194 55.4081 34.7211 55.4081Z" fill="white"/>
<path d="M36.766 52.9715C37.2932 52.9715 37.7206 52.5442 37.7206 52.017C37.7206 51.4898 37.2932 51.0625 36.766 51.0625C36.2389 51.0625 35.8115 51.4898 35.8115 52.017C35.8115 52.5442 36.2389 52.9715 36.766 52.9715Z" fill="white"/>
<path d="M38.811 50.534C39.3381 50.534 39.7655 50.1067 39.7655 49.5795C39.7655 49.0524 39.3381 48.625 38.811 48.625C38.2838 48.625 37.8564 49.0524 37.8564 49.5795C37.8564 50.1067 38.2838 50.534 38.811 50.534Z" fill="white"/>
<path d="M71.6287 64.9963C71.327 64.101 70.7002 63.3621 69.9047 62.8518C69.7991 62.7843 69.6814 62.731 69.5706 62.6705C69.9276 62.1703 70.1421 61.5626 70.1426 60.9008C70.142 59.2119 68.7738 57.8443 67.0856 57.8438C65.3967 57.8444 64.0291 59.2119 64.0286 60.9008C64.0292 61.562 64.2444 62.1704 64.6006 62.6705C64.4887 62.731 64.3721 62.7843 64.2664 62.8518C63.471 63.3622 62.8435 64.101 62.5413 64.9964C62.3733 65.4961 62.6418 66.0376 63.1414 66.2056C63.641 66.3736 64.1826 66.1051 64.3506 65.6055C64.4944 65.1758 64.8182 64.766 65.2974 64.4581C65.774 64.152 66.3959 63.9567 67.085 63.9573C67.7742 63.9566 68.3959 64.152 68.8727 64.4581C69.3518 64.7654 69.6764 65.1759 69.8195 65.6055C69.9882 66.1051 70.529 66.3735 71.0287 66.2056C71.5282 66.0367 71.7967 65.496 71.6287 64.9963ZM67.0857 62.048C66.4519 62.0468 65.9389 61.5325 65.9377 60.9C65.9389 60.2655 66.4519 59.7532 67.0857 59.752C67.7189 59.7532 68.2325 60.2662 68.2337 60.9C68.2324 61.5332 67.7182 62.0467 67.0857 62.048Z" fill="white"/>
<path d="M52.5573 68.8147C52.2561 67.9194 51.6287 67.1805 50.8332 66.6702C50.727 66.6027 50.6099 66.5493 50.4985 66.4888C50.8562 65.9887 51.0706 65.381 51.0713 64.7191C51.0707 63.0303 49.7025 61.6627 48.0143 61.6621C46.3254 61.6628 44.9573 63.0303 44.9573 64.7191C44.9573 65.3803 45.1731 65.9888 45.5293 66.4889C45.4174 66.5494 45.3008 66.6028 45.1952 66.6703C44.3997 67.1806 43.7722 67.9195 43.47 68.8148C43.302 69.3144 43.5705 69.856 44.0701 70.024C44.5698 70.192 45.1113 69.9234 45.2793 69.4238C45.4231 68.9942 45.747 68.5844 46.2261 68.2765C46.7027 67.9703 47.3246 67.7751 48.0137 67.7756C48.7029 67.775 49.3246 67.9703 49.8014 68.2765C50.2807 68.5838 50.6052 68.9943 50.7482 69.4238C50.9169 69.9234 51.4577 70.1918 51.9574 70.024C52.4568 69.8551 52.7253 69.3142 52.5573 68.8147ZM48.0142 65.8665C47.3804 65.8653 46.8674 65.351 46.8662 64.7185C46.8674 64.084 47.3804 63.5717 48.0142 63.5705C48.6474 63.5717 49.161 64.0847 49.1622 64.7185C49.1609 65.3516 48.6474 65.8651 48.0142 65.8665Z" fill="white"/>
<path d="M33.4665 64.9963C33.1653 64.101 32.5378 63.3621 31.7424 62.8518C31.6362 62.7843 31.5191 62.731 31.4077 62.6705C31.7654 62.1703 31.9797 61.5626 31.9805 60.9008C31.9799 59.2119 30.6117 57.8443 28.9235 57.8438C27.2346 57.8444 25.8664 59.2119 25.8664 60.9008C25.8664 61.562 26.0822 62.1704 26.4385 62.6705C26.3266 62.731 26.21 62.7843 26.1043 62.8518C25.3089 63.3622 24.6814 64.101 24.3792 64.9964C24.2112 65.4961 24.4797 66.0376 24.9793 66.2056C25.4789 66.3736 26.0204 66.1051 26.1884 65.6055C26.3323 65.1758 26.6561 64.766 27.1353 64.4581C27.6119 64.152 28.2338 63.9567 28.9229 63.9573C29.6121 63.9566 30.2338 64.152 30.7106 64.4581C31.1897 64.7654 31.5142 65.1759 31.6574 65.6055C31.8261 66.1051 32.3669 66.3735 32.8666 66.2056C33.366 66.0367 33.6345 65.496 33.4665 64.9963ZM28.9233 62.048C28.2894 62.0468 27.7765 61.5325 27.7753 60.9C27.7765 60.2655 28.2894 59.7532 28.9233 59.752C29.5564 59.7532 30.0701 60.2662 30.0713 60.9C30.0701 61.5332 29.5564 62.0467 28.9233 62.048Z" fill="white"/>
<path d="M53.1888 27.8384C51.8805 26.5631 50.0522 25.7275 47.9998 25.7275C45.9475 25.7275 44.1187 26.5631 42.8097 27.8377C41.5007 29.1124 40.6842 30.8407 40.6817 32.6722C40.6791 33.8367 40.9375 34.7875 41.339 35.5447C41.9446 36.6821 42.8023 37.3522 43.3598 37.9134C43.6436 38.1928 43.8543 38.4391 43.9835 38.6721C44.112 38.9082 44.1826 39.1258 44.1846 39.4681V43.6521C44.1891 44.9121 45.2054 45.9284 46.4654 45.9322H49.4659C50.7259 45.9284 51.7416 44.9121 51.7454 43.6521L51.7518 39.4693C51.7525 39.2415 51.7875 39.0716 51.8448 38.9125C51.9453 38.6388 52.1408 38.3735 52.4526 38.0566C52.9114 37.5813 53.6158 37.0423 54.2338 36.2048C54.8549 35.3686 55.3258 34.2041 55.3176 32.673C55.315 30.8413 54.4979 29.1129 53.1888 27.8384ZM49.8373 43.6507C49.8368 43.7532 49.7973 43.8417 49.7273 43.9129C49.6553 43.9835 49.567 44.0223 49.4663 44.023H46.4659C46.3647 44.023 46.2763 43.9835 46.2049 43.9129C46.1342 43.8417 46.0947 43.7531 46.0942 43.6519V41.9547H49.8392L49.8373 43.6507ZM52.9659 34.6474C52.5802 35.3754 51.9465 35.8934 51.2604 36.5501C50.9238 36.8797 50.5738 37.2501 50.2976 37.7324C50.0202 38.2116 49.8394 38.8086 49.8431 39.4678L49.8425 40.0456H46.0949V39.4678C46.0955 39.0306 46.021 38.6196 45.8867 38.2536C45.6512 37.6083 45.2554 37.1246 44.8691 36.7244C44.2817 36.1236 43.7026 35.6592 43.2947 35.0845C42.8906 34.5091 42.5974 33.8493 42.5903 32.672C42.5878 31.4236 43.1625 30.1566 44.1413 29.2064C45.1188 28.2557 46.4723 27.6366 47.9996 27.6366C49.5269 27.6366 50.8798 28.2557 51.8579 29.2064C52.8361 30.1571 53.4114 31.4235 53.4094 32.6721C53.4069 33.567 53.2242 34.16 52.9659 34.6474Z" fill="white"/>
</g>
<defs>
<clipPath id="clip0_1792_3995">
<rect width="56" height="56" fill="white" transform="translate(20 20)"/>
</clipPath>
</defs>
</svg>
