<svg width="144" height="40" viewBox="0 0 144 40" fill="none" xmlns="http://www.w3.org/2000/svg">
<g clip-path="url(#clip0_144_11023)">
<path d="M130.286 28.6667H0V0H131.657V6H128.914V2.66667H2.74286V26H128.914L141.669 7.4L144 8.93333L130.286 28.6667ZM18.3771 16.3333L16.8686 13.0667L15.36 16.3333H18.3771ZM17.5543 8L23.52 20.2V20.6667H20.2286L19.4743 19.0667H14.2629L13.44 20.6667H10.1486V20.2L16.1143 8H17.5543ZM116.434 16.3333L114.926 13.0667L113.417 16.3333H116.434ZM115.611 8L121.577 20.2V20.6667H118.286L117.531 19.0667H112.32L111.566 20.6667H108.274V20.2L114.24 8H115.611ZM31.3371 17.8C32.7086 17.8 32.64 15.6667 31.3371 15.6667H28.6629V17.8H31.3371ZM28.6629 12.9333H30.7886C32.0914 12.9333 32.0914 10.8667 30.7886 10.8667H28.6629V12.9333ZM34.08 14.0667C35.1771 14.6 35.6571 15.5333 35.6571 16.6667C35.6571 18.8667 34.2171 20.6667 31.5429 20.6667H25.3714V8H30.9943C33.2571 8 35.1086 9.73333 35.1086 11.8667C35.1086 12.6667 34.6971 13.6 34.08 14.0667ZM44.7771 16.3333L43.2686 13.0667L41.76 16.3333H44.7771ZM43.9543 8L49.92 20.1333V20.6H46.6286L45.8743 19.0667H40.6629L39.9086 20.6H36.6171V20.1333L42.5143 8H43.9543ZM85.1657 14.4C85.1657 19.0667 91.8171 19.0667 91.8171 14.4C91.7486 9.73333 85.1657 9.73333 85.1657 14.4ZM81.8743 12.6C83.52 5.46667 95.2457 6.06667 95.2457 14.4C95.2457 22.8667 83.04 23.2667 81.8057 15.6667H80.16L80.2286 20.6667H76.8V8H80.2286L80.16 12.6H81.8743ZM102.994 14.5333C104.777 14.5333 104.914 10.9333 102.994 10.9333C102.24 10.9333 101.417 10.9333 100.663 10.9333C100.663 12 100.663 13.5333 100.663 14.5333H102.994ZM103.063 8C109.234 8 109.234 17.4 103.063 17.4H100.663V20.6667C99.5657 20.6667 98.4686 20.6667 97.3714 20.6667C97.3714 16.4667 97.3714 12.2667 97.3714 8C99.2229 8 101.143 8 103.063 8ZM64.4571 8V10.4C64.5943 10.4 64.7314 10.4 64.8 10.4C66.1714 10.4 67.2686 11.4667 67.2686 12.7333C67.2686 13.6667 66.72 14.4667 65.8971 14.8667V16.7333H67.68V18.2H65.8971V18.9333H68.0914V20.3333H65.8971V20.6667H68.16C69.2571 20.6667 70.1486 20.6667 71.2457 20.6667V10.6667H74.6743C74.6743 9.66667 74.6743 8.93333 74.6743 8H64.4571ZM62.1943 13.1333L62.1257 12.5333V8H59.04V12.6H55.1314V8C53.9657 8 52.8 8 51.7029 8V20.6667C52.8686 20.6667 54.0343 20.6667 55.1314 20.6667V15.6H59.04V20.6667H59.1771C60.3429 20.6667 61.5086 20.6667 62.6057 20.6667H63.6343V14.9333C62.9486 14.6 62.3314 13.9333 62.1943 13.1333ZM26.9486 31.6667C27.0857 31.6667 27.1543 31.7333 27.1543 31.8667V32.4667H27.7714C29.4171 32.4667 30.3086 33.3333 30.3086 34.8667V35.6C30.3086 37.0667 29.4171 38 27.7714 38H27.1543V38.6C27.1543 38.7333 27.0857 38.8 26.9486 38.8H26.6057C26.4686 38.8 26.4 38.7333 26.4 38.6V38H25.7829C24.1371 38 23.2457 37.1333 23.2457 35.6V34.8667C23.2457 33.4 24.1371 32.4667 25.7829 32.4667H26.4V31.8667C26.4 31.7333 26.4 31.6667 26.6057 31.6667H26.9486ZM25.8514 33.0667C24.6171 33.0667 24 33.7333 24 34.8V35.6C24 36.6667 24.6171 37.3333 25.8514 37.3333H26.4686V33.0667H25.8514ZM29.6229 34.8C29.6229 33.7333 29.0057 33.0667 27.7714 33.0667H27.1543V37.3333H27.7714C29.0057 37.3333 29.6229 36.6667 29.6229 35.6V34.8ZM36.4114 38.4C36.48 38.5333 36.4114 38.6 36.2743 38.6H36C35.7943 38.6 35.7257 38.6 35.6571 38.4667L34.9714 36.6667H32.0229L31.3371 38.4667C31.2686 38.6 31.2686 38.6 30.9943 38.6H30.72C30.5829 38.6 30.5829 38.5333 30.5829 38.4L33.12 32.0667C33.1886 31.9333 33.1886 31.9333 33.3257 31.9333H33.6C33.7371 31.9333 33.8057 31.9333 33.8743 32.0667L36.4114 38.4ZM33.6686 33.1333C33.5314 32.8 33.5314 32.5333 33.5314 32.4667H33.4629C33.4629 32.4667 33.4629 32.8 33.3257 33.1333L32.2286 36.0667H34.7657L33.6686 33.1333ZM41.4857 31.8667C41.6229 31.8667 41.6914 31.9333 41.6914 32.0667V32.3333C41.6914 32.4667 41.6229 32.5333 41.4857 32.5333H37.9886V34.7333H40.1829C41.4171 34.7333 42.1714 35.4667 42.1714 36.6667C42.1714 37.8667 41.4171 38.6 40.1829 38.6H37.44C37.3029 38.6 37.2343 38.6 37.2343 38.4V32.0667C37.2343 31.9333 37.3029 31.8667 37.44 31.8667H41.4857ZM41.4171 36.6667C41.4171 35.8667 40.9371 35.4 40.1143 35.4H37.92V38H40.1143C40.9371 37.9333 41.4171 37.4667 41.4171 36.6667ZM45.8743 31.8667C47.1771 31.8667 48 32.6667 48 33.9333C48 35.2 47.1771 36 45.8743 36H43.8171V38.3333C43.8171 38.4667 43.8171 38.5333 43.6114 38.5333H43.2686C43.1314 38.5333 43.0629 38.4667 43.0629 38.3333V32.0667C43.0629 31.9333 43.1314 31.8667 43.2686 31.8667H45.8743ZM45.8743 35.4C46.7657 35.4 47.3829 34.8667 47.3829 33.9333C47.3829 33 46.8343 32.4667 45.8743 32.4667H43.8857V35.3333H45.8743V35.4ZM53.9657 31.8667C54.1029 31.8667 54.1714 31.9333 54.1714 32.0667V38.3333C54.1714 38.4667 54.1029 38.5333 53.9657 38.5333H53.6229C53.4857 38.5333 53.4171 38.4667 53.4171 38.3333V34.6667C53.4171 33.8667 53.4171 33.4667 53.5543 32.7333C53.2114 33.3333 53.0057 33.7333 52.5257 34.4L49.7829 38.4C49.7143 38.4667 49.6457 38.4667 49.5771 38.4667H49.2343C49.0971 38.4667 49.0286 38.4 49.0286 38.2667V32C49.0286 31.8667 49.0971 31.8 49.2343 31.8H49.5771C49.7143 31.8 49.7829 31.8667 49.7829 32V35.6C49.7829 36.4 49.7829 36.8667 49.6457 37.6C49.9886 36.9333 50.2629 36.4667 50.7429 35.8L53.4857 31.8667C53.4857 31.8 53.5543 31.8 53.6914 31.8H53.9657V31.8667ZM60.4114 38.4C60.48 38.5333 60.48 38.6 60.3429 38.6H60.0686C59.8629 38.6 59.7943 38.6 59.6571 38.4667L58.6286 36.4C58.3543 35.8 58.0114 35.6 57.2571 35.6H56.2971V38.4667C56.2971 38.6 56.2286 38.6667 56.0914 38.6667H55.7486C55.6114 38.6667 55.5429 38.6 55.5429 38.4667V32.2C55.5429 32.0667 55.6114 32 55.7486 32H56.0914C56.2286 32 56.2971 32.0667 56.2971 32.2V35H57.3943L59.52 32.2C59.5886 32.0667 59.6571 32.0667 59.9314 32.0667H60.2743C60.4114 32.0667 60.4114 32.1333 60.3429 32.2667L58.08 35.2C58.6286 35.3333 58.9714 35.6667 59.2457 36.2667L60.4114 38.4ZM66.5829 38.4C66.6514 38.5333 66.5829 38.6 66.4457 38.6H66.1714C65.9657 38.6 65.8971 38.6 65.8286 38.4667L65.1429 36.6667H62.1943L61.5086 38.4667C61.5086 38.6 61.44 38.6 61.1657 38.6H60.8914C60.7543 38.6 60.6857 38.5333 60.7543 38.4L63.2914 32.0667C63.36 31.9333 63.4286 31.9333 63.4971 31.9333H63.7714C63.9086 31.9333 63.9771 31.9333 64.0457 32.0667L66.5829 38.4ZM63.7714 33.1333C63.6343 32.8 63.6343 32.5333 63.6343 32.4667H63.5657C63.5657 32.4667 63.5657 32.8 63.4286 33.1333L62.2629 36H64.8L63.7714 33.1333ZM69.3257 33.3333C69.6686 32.2667 70.4229 31.7333 71.8629 31.7333C73.5771 31.7333 74.4686 32.6 74.4686 34.0667V36.2667C74.4686 37.7333 73.5771 38.6 71.8629 38.6C70.4229 38.6 69.6686 38 69.3257 37C69.2571 36.8667 69.3257 36.8 69.4629 36.7333L69.7371 36.6C69.8743 36.5333 69.9429 36.6 69.9429 36.7333C70.2171 37.5333 70.6971 37.9333 71.7943 37.9333C73.0286 37.9333 73.7143 37.2667 73.7143 36.2V35.4H70.9029C70.7657 35.4 70.6971 35.3333 70.6971 35.2V34.9333C70.6971 34.8 70.7657 34.7333 70.9029 34.7333H73.7143V33.9333C73.7143 32.8667 73.0971 32.2 71.7943 32.2C70.6971 32.2 70.2171 32.6 69.9429 33.4C69.8743 33.5333 69.8057 33.5333 69.6686 33.5333L69.3943 33.4C69.2571 33.5333 69.2571 33.4667 69.3257 33.3333ZM81.5314 31.8667C81.6686 31.8667 81.7371 31.9333 81.7371 32.0667V38.3333C81.7371 38.4667 81.6686 38.5333 81.5314 38.5333H81.2571C81.12 38.5333 81.0514 38.4667 81.0514 38.3333V34.5333C81.0514 34 81.0514 33.4667 81.1886 32.8667C80.9829 33.4 80.7086 33.8667 80.4343 34.3333L78.9943 36.8667C78.9257 37 78.9257 37 78.7886 37H78.5829C78.4457 37 78.4457 37 78.3771 36.8667L76.9371 34.3333C76.6629 33.8667 76.4571 33.4667 76.2514 32.8667C76.32 33.4667 76.32 34 76.32 34.5333V38.3333C76.32 38.4667 76.2514 38.5333 76.1143 38.5333H75.84C75.7029 38.5333 75.6343 38.4667 75.6343 38.3333V32.0667C75.6343 31.9333 75.7029 31.8667 75.84 31.8667H76.1143C76.2514 31.8667 76.32 31.9333 76.3886 32L78.72 36.1333L81.0514 32C81.12 31.8667 81.1886 31.8667 81.3257 31.8667H81.5314ZM83.04 34.1333C83.04 32.6667 83.9314 31.8 85.6457 31.8C87.36 31.8 88.2514 32.6667 88.2514 34.1333V36.3333C88.2514 37.8 87.36 38.6667 85.6457 38.6667C83.9314 38.6667 83.04 37.8 83.04 36.3333V34.1333ZM87.4971 34.1333C87.4971 33.0667 86.8114 32.4 85.5771 32.4C84.3429 32.4 83.6571 33.0667 83.6571 34.1333V36.3333C83.6571 37.4 84.3429 38.0667 85.5771 38.0667C86.8114 38.0667 87.4971 37.4667 87.4971 36.3333V34.1333ZM94.9029 37.9333C95.04 37.9333 95.1086 38 95.1086 38.1333V39.8C95.1086 39.9333 95.04 40 94.9029 40H94.6286C94.4914 40 94.4229 39.9333 94.4229 39.8V38.5333H89.6229C89.4857 38.5333 89.4171 38.4667 89.4171 38.3333V32.0667C89.4171 31.9333 89.4857 31.8667 89.6229 31.8667H89.9657C90.1029 31.8667 90.1714 31.9333 90.1714 32.0667V37.9333H93.6686V32.0667C93.6686 31.9333 93.7371 31.8667 93.8743 31.8667H94.2171C94.3543 31.8667 94.4229 31.9333 94.4229 32.0667V37.9333H94.9029ZM100.937 31.8667C101.074 31.8667 101.143 31.9333 101.143 32.0667V38.3333C101.143 38.4667 101.074 38.5333 100.937 38.5333H100.594C100.457 38.5333 100.389 38.4667 100.389 38.3333V34.6667C100.389 33.8667 100.457 33.4667 100.526 32.7333C100.183 33.3333 99.9086 33.7333 99.4971 34.4L96.6857 38.4C96.6171 38.4667 96.6171 38.4667 96.48 38.4667H96.1371C96 38.4667 95.9314 38.4 95.9314 38.2667V32C95.9314 31.8667 96 31.8 96.1371 31.8H96.48C96.6171 31.8 96.6857 31.8667 96.6857 32V35.6C96.6857 36.4 96.6857 36.8667 96.5486 37.6C96.8914 36.9333 97.1657 36.4667 97.6457 35.8L100.32 31.8667C100.389 31.8 100.389 31.8 100.526 31.8H100.937V31.8667ZM106.697 30.3333C106.491 31 105.943 31.3333 105.12 31.3333C104.297 31.3333 103.817 31 103.611 30.3333C103.611 30.2667 103.611 30.2 103.68 30.2L103.954 30.1333C104.023 30.1333 104.091 30.1333 104.16 30.2C104.297 30.6667 104.64 30.9333 105.189 30.9333C105.737 30.9333 106.08 30.6667 106.217 30.2C106.217 30.1333 106.286 30.1333 106.354 30.1333L106.629 30.2C106.697 30.2 106.697 30.2667 106.697 30.3333ZM107.451 31.8667C107.589 31.8667 107.657 31.9333 107.657 32.0667V38.3333C107.657 38.4667 107.589 38.5333 107.451 38.5333H107.109C106.971 38.5333 106.903 38.4667 106.903 38.3333V34.6667C106.903 33.8667 106.903 33.4667 107.04 32.7333C106.697 33.3333 106.491 33.7333 106.011 34.4L103.2 38.4C103.131 38.4667 103.063 38.4667 102.994 38.4667H102.651C102.514 38.4667 102.446 38.4 102.446 38.2667V32C102.446 31.8667 102.514 31.8 102.651 31.8H102.994C103.131 31.8 103.2 31.8667 103.2 32V35.6C103.2 36.4 103.2 36.8667 103.063 37.6C103.406 36.9333 103.68 36.4667 104.16 35.8L106.903 31.8667C106.903 31.8 106.971 31.8 107.109 31.8H107.451V31.8667Z" fill="white"/>
</g>
<defs>
<clipPath id="clip0_144_11023">
<rect width="144" height="40" fill="white"/>
</clipPath>
</defs>
</svg>
